<svg xmlns="http://www.w3.org/2000/svg" xmlns:xlink="http://www.w3.org/1999/xlink" width="113" zoomAndPan="magnify" viewBox="0 0 84.75 56.999997" height="75" preserveAspectRatio="xMidYMid meet" version="1.0"><defs><g/></defs><path fill="#ffffff" d="M 0.207031 32.113281 L 1.054688 32.113281 L 1.054688 32.585938 C 1.054688 33.242188 1.386719 33.523438 2.515625 33.523438 L 5.292969 33.523438 C 6.613281 33.523438 6.988281 33.242188 6.988281 32.304688 C 6.988281 31.457031 6.660156 31.269531 5.527344 31.269531 L 3.789062 31.269531 C 1.054688 31.269531 0.160156 31.128906 0.160156 29.339844 C 0.160156 27.835938 1.054688 27.507812 2.9375 27.507812 L 4.871094 27.507812 C 7.082031 27.507812 7.648438 28.070312 7.648438 29.246094 L 7.648438 29.480469 L 6.800781 29.480469 C 6.800781 28.449219 6.660156 28.257812 4.351562 28.257812 L 3.410156 28.257812 C 1.667969 28.257812 1.054688 28.351562 1.054688 29.433594 C 1.054688 30.234375 1.289062 30.46875 2.703125 30.46875 L 5.339844 30.46875 C 7.082031 30.46875 7.789062 30.988281 7.789062 32.066406 L 7.789062 32.492188 C 7.789062 34.089844 6.472656 34.230469 5.152344 34.230469 L 2.65625 34.230469 C 1.339844 34.230469 0.207031 33.996094 0.207031 32.539062 Z M 0.207031 32.113281 " fill-opacity="1" fill-rule="nonzero"/><path fill="#ffffff" d="M 9.625 27.601562 L 10.519531 27.601562 L 12.828125 33.382812 L 15.089844 27.601562 L 16.21875 27.601562 L 18.480469 33.382812 L 20.835938 27.601562 L 21.730469 27.601562 L 19.089844 34.183594 L 17.914062 34.183594 L 15.65625 28.402344 L 13.394531 34.183594 L 12.265625 34.183594 Z M 9.625 27.601562 " fill-opacity="1" fill-rule="nonzero"/><path fill="#ffffff" d="M 29.359375 32.066406 L 27.144531 28.304688 L 24.929688 32.066406 L 24.507812 32.773438 L 23.660156 34.183594 L 22.625 34.183594 L 26.582031 27.601562 L 27.710938 27.601562 L 31.617188 34.183594 L 30.582031 34.183594 L 29.734375 32.773438 Z M 29.359375 32.066406 " fill-opacity="1" fill-rule="nonzero"/><path fill="#ffffff" d="M 33.691406 27.601562 L 38.964844 27.601562 C 40.898438 27.601562 41.179688 28.210938 41.179688 29.480469 L 41.179688 30 C 41.179688 30.9375 40.660156 31.175781 39.953125 31.269531 C 40.847656 31.410156 41.085938 31.929688 41.085938 32.492188 L 41.085938 34.183594 L 40.234375 34.183594 L 40.234375 32.726562 C 40.234375 31.691406 39.71875 31.550781 38.917969 31.550781 L 34.539062 31.550781 L 34.539062 34.183594 L 33.644531 34.183594 Z M 38.871094 30.84375 C 39.859375 30.84375 40.285156 30.5625 40.285156 29.902344 L 40.285156 29.292969 C 40.285156 28.542969 39.953125 28.304688 38.636719 28.304688 L 34.539062 28.304688 L 34.539062 30.84375 Z M 38.871094 30.84375 " fill-opacity="1" fill-rule="nonzero"/><path fill="#ffffff" d="M 43.769531 27.601562 L 45.183594 27.601562 L 49.042969 33.148438 L 52.90625 27.601562 L 54.320312 27.601562 L 54.320312 34.183594 L 53.421875 34.183594 L 53.421875 28.402344 L 49.371094 34.183594 L 48.714844 34.183594 L 44.757812 28.402344 L 44.757812 34.183594 L 43.863281 34.183594 L 43.863281 27.601562 Z M 43.769531 27.601562 " fill-opacity="1" fill-rule="nonzero"/><g fill="#ffffff" fill-opacity="1"><g transform="translate(60.863657, 34.535507)"><g><path d="M 2.519531 -3.277344 L 2.519531 -3.734375 L 1.253906 -3.734375 C 0.679688 -3.734375 0.207031 -3.265625 0.207031 -2.691406 L 0.207031 -2.679688 C 0.207031 -2.109375 0.65625 -1.660156 1.234375 -1.640625 L 1.476562 -1.640625 C 1.804688 -1.640625 2.0625 -1.375 2.0625 -1.054688 L 2.0625 -1.042969 C 2.0625 -0.71875 1.804688 -0.457031 1.476562 -0.457031 L 0.207031 -0.457031 L 0.207031 0 L 1.476562 0 C 2.054688 0 2.519531 -0.46875 2.519531 -1.042969 L 2.519531 -1.054688 C 2.519531 -1.375 2.371094 -1.675781 2.128906 -1.867188 C 1.945312 -2.003906 1.726562 -2.09375 1.476562 -2.09375 L 1.253906 -2.09375 C 0.925781 -2.09375 0.667969 -2.359375 0.667969 -2.679688 L 0.667969 -2.691406 C 0.667969 -3.015625 0.925781 -3.277344 1.253906 -3.277344 Z M 2.519531 -3.277344 "/></g></g></g><g fill="#ffffff" fill-opacity="1"><g transform="translate(63.855704, 34.535507)"><g><path d="M 0.9375 -2.320312 L 1.203125 -2.777344 L 0.648438 -3.734375 L 0.117188 -3.734375 Z M 1.726562 -1.859375 L 2.808594 -3.734375 L 2.320312 -3.734375 L 1.234375 -1.859375 C 1.234375 -1.859375 1.234375 0 1.234375 0 C 1.234375 0 1.726562 0 1.726562 0 C 1.726562 0 1.726562 -1.859375 1.726562 -1.859375 Z M 1.726562 -1.859375 "/></g></g></g><g fill="#ffffff" fill-opacity="1"><g transform="translate(66.791681, 34.535507)"><g><path d="M 0.367188 0 L 0.824219 0 L 0.824219 -2.035156 L 0.367188 -2.824219 Z M 2.597656 -3.734375 L 2.597656 -0.78125 L 1.976562 -1.859375 L 0.898438 -3.734375 L 0.367188 -3.734375 L 1.453125 -1.859375 L 1.71875 -1.40625 L 1.941406 -1.007812 L 2.527344 0 L 3.058594 0 L 3.058594 -3.734375 Z M 2.597656 -3.734375 "/></g></g></g><g fill="#ffffff" fill-opacity="1"><g transform="translate(70.497332, 34.535507)"><g><path d="M 2.929688 0 L 2.929688 -0.457031 L 2.027344 -0.457031 C 1.253906 -0.457031 0.621094 -1.089844 0.621094 -1.867188 C 0.621094 -2.644531 1.253906 -3.277344 2.027344 -3.277344 L 2.929688 -3.277344 L 2.929688 -3.734375 L 2.027344 -3.734375 C 1.535156 -3.734375 1.066406 -3.542969 0.707031 -3.191406 C 0.355469 -2.835938 0.164062 -2.363281 0.164062 -1.867188 C 0.164062 -1.371094 0.355469 -0.902344 0.707031 -0.546875 C 1.066406 -0.195312 1.535156 0 2.027344 0 Z M 2.929688 0 "/></g></g></g></svg>