<svg version="1.2" xmlns="http://www.w3.org/2000/svg" viewBox="0 0 353 102" width="500" height="144">
	<title>Swarm Sync-svg</title>
	<style>
		.s0 { fill: none;stroke: #ffffff;stroke-width: 3 } 
		.s1 { fill: #ffffff } 
	</style>
	<path id="Layer" fill-rule="evenodd" class="s0" d="m-0.1 61.2l153.8-1.6"/>
	<path id="Layer" fill-rule="evenodd" class="s0" d="m205.2 59.7h147.8"/>
	<path id="Layer" class="s1" d="m7.4 28.2h5.4v3c0 4.2 2 6 9.1 6h17.5c8.3 0 10.7-1.8 10.7-7.8 0-5.3-2.1-6.5-9.2-6.5h-10.9c-17.2 0-22.9-0.9-22.9-12.2 0-9.5 5.7-11.6 17.5-11.6h12.2c13.9 0 17.5 3.6 17.5 11v1.5h-5.4c0-6.6-0.9-7.7-15.4-7.7h-5.9c-11 0-14.8 0.6-14.8 7.4 0 5 1.4 6.5 10.3 6.5h16.6c11 0 15.5 3.3 15.5 10.1v2.7c0 10.1-8.4 11-16.7 11h-15.7c-8.3 0-15.4-1.5-15.4-10.7z"/>
	<path id="Layer" class="s1" d="m66.7-0.3h5.6l14.6 36.6 14.2-36.6h7.1l14.2 36.6 14.9-36.6h5.6l-16.6 41.6h-7.4l-14.2-36.6-14.3 36.6h-7.1z"/>
	<path id="Layer" class="s1" d="m190.9 27.9l-13.9-23.7-13.9 23.7-2.7 4.5-5.3 8.9h-6.6l24.9-41.6h7.2l24.6 41.6h-6.6l-5.3-8.9z"/>
	<path id="Layer" fill-rule="evenodd" class="s1" d="m218.2-0.3h33.2c12.2 0 13.9 3.9 13.9 11.9v3.3c0 5.9-3.2 7.4-7.7 8 5.7 0.9 7.1 4.1 7.1 7.7v10.7h-5.3v-9.2c0-6.5-3.3-7.4-8.3-7.4h-27.6v16.6h-5.6zm32.6 20.5c6.2 0 8.9-1.7 8.9-5.9v-3.9c0-4.7-2.1-6.2-10.4-6.2h-25.8v16z"/>
	<path id="Layer" class="s1" d="m281.6-0.3h8.9l24.3 35.1 24.4-35.1h8.9v41.6h-5.7v-36.6l-25.5 36.6h-4.1l-24.9-36.6v36.6h-5.7v-41.6z"/>
	<g id="Layer">
		<g id="Layer">
			<g id="Layer">
				<path id="Layer" class="s1" d="m153.4 81.5v-2.9h-8c-3.6 0-6.5 3-6.5 6.6 0 3.6 2.8 6.5 6.4 6.6h1.5c2.1 0 3.7 1.7 3.7 3.7 0 2.1-1.6 3.7-3.7 3.7h-7.9v2.9h7.9c3.7 0 6.6-2.9 6.6-6.6 0-2-0.9-3.9-2.5-5.1-1.1-0.9-2.5-1.5-4.1-1.5h-1.4c-2 0-3.6-1.6-3.6-3.7 0-2.1 1.6-3.7 3.6-3.7z"/>
			</g>
		</g>
	</g>
	<g id="Layer">
		<g id="Layer">
			<g id="Layer">
				<path id="Layer" class="s1" d="m162.4 87.5l1.6-2.9-3.5-6h-3.3zm5 2.9l6.8-11.8h-3.1l-6.8 11.8v11.7h3.1z"/>
			</g>
		</g>
	</g>
	<g id="Layer">
		<g id="Layer">
			<g id="Layer">
				<path id="Layer" fill-rule="evenodd" class="s1" d="m193.9 78.6v23.5h-3.4l-3.7-6.3-1.4-2.5-1.6-2.9-6.9-11.8h3.4l6.8 11.8 3.9 6.8v-18.6zm-16.9 5.8l2.8 4.9v12.8h-2.8z"/>
			</g>
		</g>
	</g>
	<g id="Layer">
		<g id="Layer">
			<g id="Layer">
				<path id="Layer" class="s1" d="m216.2 99.2h-5.7c-4.9 0-8.9-4-8.9-8.8 0-4.9 4-8.9 8.9-8.9h5.7v-2.9h-5.7c-3.1 0-6.1 1.2-8.3 3.4-2.2 2.3-3.4 5.2-3.4 8.4 0 3.1 1.2 6 3.4 8.3 2.2 2.2 5.2 3.4 8.3 3.4h5.7z"/>
			</g>
		</g>
	</g>
	<g id="Layer">
		<g id="Layer">
			<g id="Layer">
				<path id="Layer" class="s1" d="m176.4 62.2c1.3 0 2.4-0.4 2.4-1.7 0-1.1-1.1-1.3-2.2-1.4-1-0.2-1.9-0.3-1.9-1 0-0.9 0.9-1.2 1.7-1.2 0.7 0 1.7 0.3 1.7 1.2h0.5c0-1.2-1.1-1.6-2.2-1.6-1.2 0-2.3 0.4-2.3 1.6 0 1.2 1.2 1.3 2.3 1.4 0.9 0.1 1.8 0.2 1.9 1 0 1-0.9 1.2-1.9 1.2-1 0-1.9-0.2-1.9-1.2h-0.5c0 1.3 1.1 1.7 2.4 1.7z"/>
			</g>
		</g>
	</g>
	<g id="Layer">
		<g id="Layer">
			<g id="Layer">
				<path id="Layer" class="s1" d="m182.3 62.2c1.3 0 2.4-0.4 2.4-1.7 0-1.1-1.2-1.3-2.2-1.4-1-0.2-2-0.3-2-1 0-0.9 0.9-1.2 1.7-1.2 0.8 0 1.7 0.3 1.7 1.2h0.6c0-1.2-1.1-1.6-2.3-1.6-1.2 0-2.2 0.4-2.2 1.6 0 1.2 1.1 1.3 2.2 1.4 1 0.1 1.9 0.2 1.9 1 0 1-0.9 1.2-1.8 1.2-1 0-1.9-0.2-1.9-1.2h-0.6c0 1.3 1.1 1.7 2.5 1.7z"/>
			</g>
		</g>
	</g>
</svg>